<?xml version="1.0" standalone="no"?>
<!DOCTYPE svg PUBLIC "-//W3C//DTD SVG 20010904//EN"
 "http://www.w3.org/TR/2001/REC-SVG-20010904/DTD/svg10.dtd">
<svg version="1.0" xmlns="http://www.w3.org/2000/svg"
 width="880.000000pt" height="880.000000pt" viewBox="0 0 880.000000 880.000000"
 preserveAspectRatio="xMidYMid meet">
<metadata>
Created by potrace 1.14, written by Peter Selinger 2001-2017
</metadata>
<g transform="translate(0.000000,880.000000) scale(0.100000,-0.100000)"
fill="#000000" stroke="none">
<path d="M4392 6348 c-23 -46 -68 -132 -100 -193 -32 -60 -97 -184 -144 -275
-47 -91 -109 -210 -138 -265 -59 -112 -147 -282 -246 -472 -37 -71 -88 -168
-114 -218 -26 -49 -78 -148 -115 -220 -37 -71 -91 -175 -120 -230 -29 -55 -83
-158 -120 -230 -37 -71 -87 -166 -110 -210 -23 -44 -89 -170 -145 -280 -57
-110 -106 -204 -110 -210 -10 -13 -110 -211 -110 -217 0 -3 182 -4 405 -4 223
1 405 -2 405 -5 0 -3 -106 -216 -236 -473 -130 -257 -233 -470 -230 -473 6 -6
374 -8 381 -2 2 3 110 217 239 477 l236 472 572 1 c315 0 750 1 966 1 246 1
392 5 392 11 0 8 -122 251 -615 1222 -89 176 -247 487 -350 690 -103 204 -190
373 -194 378 -4 4 -32 -43 -63 -105 -31 -62 -252 -507 -493 -990 l-437 -876
-214 -1 c-119 0 -216 3 -219 9 -3 5 10 37 28 72 19 35 65 122 102 193 37 72
87 166 110 210 23 44 79 152 125 240 45 88 104 201 130 250 64 122 144 274
225 430 37 72 84 162 105 200 21 39 72 138 115 220 43 83 94 182 115 220 20
39 72 136 114 216 l76 147 -82 186 c-46 102 -85 186 -88 186 -3 0 -25 -37 -48
-82z m711 -2079 c170 -336 307 -613 304 -615 -2 -2 -278 -3 -614 -2 l-609 3
135 276 c75 151 210 427 301 612 90 185 167 337 170 337 3 0 144 -275 313
-611z"/>
</g>
</svg>
